<?xml version="1.0" encoding="UTF-8" standalone="no"?>
<!-- Generator: Adobe Illustrator 27.2.0, SVG Export Plug-In . SVG Version: 6.00 Build 0)  -->

<svg
   version="1.1"
   id="Layer_1"
   x="0px"
   y="0px"
   viewBox="0 0 114.25 83"
   xml:space="preserve"
   sodipodi:docname="sunsource_logo_soft-gradient.svg"
   width="114.25"
   height="83"
   inkscape:version="1.3.2 (091e20e, 2023-11-25, custom)"
   xmlns:inkscape="http://www.inkscape.org/namespaces/inkscape"
   xmlns:sodipodi="http://sodipodi.sourceforge.net/DTD/sodipodi-0.dtd"
   xmlns="http://www.w3.org/2000/svg"
   xmlns:svg="http://www.w3.org/2000/svg"><defs
   id="defs38" /><sodipodi:namedview
   id="namedview38"
   pagecolor="#ffffff"
   bordercolor="#000000"
   borderopacity="0.25"
   inkscape:showpageshadow="2"
   inkscape:pageopacity="0.0"
   inkscape:pagecheckerboard="0"
   inkscape:deskcolor="#d1d1d1"
   inkscape:zoom="9.0613455"
   inkscape:cx="61.525079"
   inkscape:cy="39.453302"
   inkscape:window-width="1920"
   inkscape:window-height="1009"
   inkscape:window-x="-8"
   inkscape:window-y="-8"
   inkscape:window-maximized="1"
   inkscape:current-layer="Layer_1" />
<style
   type="text/css"
   id="style1">
	.st0{opacity:0.1;}
	.st1{fill:url(#SVGID_1_);}
	.st2{fill:#073860;}
	.st3{fill:url(#SVGID_00000085964587311217607280000008236818240970647947_);}
</style>
<g
   id="g7"
   style="display:inline">
	
	
	<polygon
   class="st0"
   points="57,28 37.3,42.1 57.7,55.2 78.8,41.9 "
   id="polygon2" />
	<path
   class="st0"
   d="M 103.8,25.3 H 62.3 L 96.2,1 h -46 L 49.9,1.2 C 33.7,12.1 18.8,22.5 4.3,33 0,37.1 0,45.1 2.4,50.6 c 2.7,4.3 6,6.9 10,7.6 H 54.9 L 19.6,83 H 65.7 L 105,55.9 c 7.2,-4.3 10.8,-10.6 9.9,-17.3 C 114,33.2 110.3,26.8 103.8,25.3 Z M 57.7,56.8 35.1,42.2 57,26.5 81.2,41.9 Z"
   id="path3" />
	
	
	
	
	
</g>
<linearGradient
   id="SVGID_1_"
   gradientUnits="userSpaceOnUse"
   x1="114.23532"
   y1="81.997528"
   x2="114.23055"
   y2="0.004858769">
	<stop
   offset="0.33"
   style="stop-color:#09549D"
   id="stop7" />
	<stop
   offset="1"
   style="stop-color:#4480B6"
   id="stop8" />
</linearGradient>
<path
   class="st1"
   d="m 114.1,37.5 c 0.9,6.7 -2.7,13 -9.9,17.3 L 64.9,82 H 18.8 L 54.1,57.2 H 11.6 C 7.7,56.5 4.3,53.9 1.6,49.6 -0.8,44.1 -0.8,36.1 3.5,32 18,21.5 32.9,11.1 49.1,0.2 L 49.4,0 h 46.1 l -34,24.3 H 103 c 6.5,1.5 10.2,7.9 11.1,13.2 z M 80.3,40.9 56.2,25.5 34.3,41.2 56.9,55.8 Z"
   id="path8"
   style="display:inline;fill:url(#SVGID_1_)"
   sodipodi:nodetypes="ccccccccccccccccccc" />

<linearGradient
   id="SVGID_00000083779914567898669660000016600635276466129793_"
   gradientUnits="userSpaceOnUse"
   x1="57.246601"
   y1="54.2579"
   x2="57.246601"
   y2="27.0487">
	<stop
   offset="0.33"
   style="stop-color:#B0B0B3"
   id="stop37" />
	<stop
   offset="1"
   style="stop-color:#CCCCCC"
   id="stop38" />
</linearGradient>
<polygon
   style="display:inline;fill:url(#SVGID_00000083779914567898669660000016600635276466129793_)"
   points="56.9,54.3 78,40.9 56.2,27 36.5,41.1 "
   id="polygon38" />
</svg>
